<?xml version="1.0"?>
<svg width="64" height="64" xmlns="http://www.w3.org/2000/svg" xmlns:svg="http://www.w3.org/2000/svg">
 <g>
  <title>Layer 1</title>
  <g stroke="null" id="Layer_1">
   <g stroke="null" id="svg_1">
    <path stroke="null" stroke-dasharray="5,2,2,2,2,2" fill="#18bc9c" d="m63.081951,8.381778c-0.633938,-0.782776 -1.546677,-1.23314 -2.509205,-1.23314l-45.866015,0l-0.647215,-4.160507c-0.265525,-1.722821 -1.649571,-2.988131 -3.272589,-2.988131l-7.467872,0c-1.835438,0 -3.319055,1.597721 -3.319055,3.574319s1.483617,3.574318 3.319055,3.574318l4.656633,0l6.173441,39.903696c0.026554,0.160843 0.102893,0.293095 0.149359,0.443214c0.053103,0.189442 0.096252,0.368164 0.179229,0.539722c0.106211,0.235909 0.248928,0.436073 0.398284,0.639805c0.102893,0.139397 0.195827,0.278801 0.315312,0.400326c0.192507,0.193012 0.414883,0.328842 0.640577,0.464664c0.126122,0.075066 0.235653,0.17514 0.371735,0.232327c0.38501,0.167995 0.789932,0.268074 1.218094,0.268074c0.003317,0 36.512917,0 36.512917,0c1.835438,0 3.319057,-1.597725 3.319057,-3.574318s-1.48362,-3.574322 -3.319057,-3.574322l-33.698359,0l-0.550966,-3.574314l37.568382,0c1.652889,0 3.053524,-1.308205 3.285858,-3.066769l3.319057,-25.020234c0.136082,-1.029403 -0.149357,-2.069529 -0.776657,-2.848732zm-6.336075,5.915499l-0.945927,7.148637l-11.822475,0l0,-7.148637l12.768402,0zm-16.087456,0l0,7.148637l-9.957167,0l0,-7.148637l9.957167,0zm0,10.722955l0,7.148642l-9.957167,0l0,-7.148642l9.957167,0zm-13.276222,-10.722955l0,7.148637l-9.957163,0c-0.175909,0 -0.335222,0.053617 -0.49122,0.107229l-1.121841,-7.255866l11.570225,0zm-9.910698,10.722955l9.910698,0l0,7.148642l-8.805449,0l-1.105249,-7.148642zm26.505974,7.148642l0,-7.148642l11.344528,0l-0.94593,7.148642l-10.398598,0z" id="svg_2"/>
    <circle stroke="null" stroke-dasharray="5,2,2,2,2,2" fill="#18bc9c" cx="22.403618" cy="58.976263" r="4.911995" id="svg_3"/>
    <circle stroke="null" stroke-dasharray="5,2,2,2,2,2" fill="#18bc9c" cx="52.275109" cy="58.976263" r="4.911993" id="svg_4"/>
   </g>
  </g>
  <g id="nyt_x5F_exporter_x5F_info" display="none"/>
 </g>

</svg>