<?xml version="1.0"?>
<svg width="64" height="64" xmlns="http://www.w3.org/2000/svg" xmlns:svg="http://www.w3.org/2000/svg" style="vector-effect: non-scaling-stroke;" stroke="null">
 <g stroke="null">
  <title stroke="null">Layer 1</title>
  <path d="m26.602678,57.322437c0,-0.88435 -0.183226,-1.722153 -0.54891,-2.513184c-0.365944,-0.791492 -0.888975,-1.477798 -1.568323,-2.059834c-0.679609,-0.581806 -1.463772,-1.047253 -2.352488,-1.396107c-0.888716,-0.349312 -1.82971,-0.523861 -2.822977,-0.523861s-1.934267,0.174549 -2.822987,0.523861c-0.888716,0.349079 -1.659806,0.814522 -2.313276,1.396107c-0.653469,0.582035 -1.163174,1.268341 -1.529116,2.059834c-0.365942,0.791252 -0.548914,1.628834 -0.548914,2.513184s0.182972,1.722378 0.548914,2.513409c0.36594,0.791492 0.875647,1.477798 1.529116,2.059605c0.65347,0.582031 1.424561,1.047478 2.313276,1.396324c0.88872,0.349323 1.829714,0.523643 2.822987,0.523643s1.934261,-0.17432 2.822977,-0.523643c0.888973,-0.349079 1.673138,-0.814518 2.352488,-1.396324c0.679605,-0.581806 1.202379,-1.268112 1.568323,-2.059605c0.365938,-0.791252 0.54891,-1.629059 0.54891,-2.513409zm-6.743786,-9.35548l-0.627329,0c-1.672878,-0.186184 -3.04516,-0.861069 -4.11685,-2.024689c-1.071686,-1.163395 -1.529116,-2.490139 -1.372283,-3.979565c0.313666,-2.559856 1.03248,-5.038467 2.156446,-7.435513c1.12396,-2.39716 2.57466,-4.526468 4.352096,-6.388258c0.575052,-0.651627 1.202381,-1.245071 1.881985,-1.780338c0.679863,-0.535259 1.359215,-1.058884 2.038822,-1.570875c1.725157,-1.303253 3.045418,-2.466873 3.960018,-3.490856s1.37228,-2.280684 1.37228,-3.770117c0,-1.303253 -0.300594,-2.373773 -0.901785,-3.211578c-0.600935,-0.837801 -1.332949,-1.501065 -2.195654,-1.989781c-0.862705,-0.488724 -1.76449,-0.837806 -2.705355,-1.047256c-0.940992,-0.209453 -1.777433,-0.314176 -2.509319,-0.314176l-0.156832,0c-1.463766,0 -2.666147,0.174541 -3.607145,0.523626c-0.940989,0.349082 -1.738221,0.837806 -2.391689,1.466156c-0.653467,0.628359 -1.202381,1.384705 -1.646743,2.26905c-0.444356,0.884358 -0.901785,1.838523 -1.372282,2.862498c-0.627331,1.442886 -1.385351,2.455235 -2.274066,3.037037c-0.888716,0.581814 -1.777434,0.919268 -2.666149,1.012356c-0.993272,0.18618 -2.012682,0.116358 -3.058231,-0.209457c-1.045546,-0.372356 -1.881988,-0.907625 -2.509318,-1.605789c-0.57505,-0.605082 -1.019409,-1.384701 -1.333073,-2.338865c-0.313665,-0.954172 -0.209109,-2.12942 0.313664,-3.525764c0.313665,-0.884342 0.862577,-2.152688 1.646742,-3.805025s1.97347,-3.269763 3.567932,-4.852281c1.594463,-1.582517 3.646354,-2.955587 6.155669,-4.119201c2.50932,-1.163619 5.645962,-1.722151 9.409937,-1.675611c2.509319,0.046549 4.979427,0.453809 7.41033,1.221802c2.430901,0.767984 4.61348,1.896692 6.547749,3.38612c1.934521,1.489436 3.502586,3.316307 4.705227,5.480638c1.202377,2.164327 1.803314,4.642828 1.803314,7.435513c0,2.04796 -0.313404,3.863197 -0.940994,5.445719c-0.627331,1.582521 -1.424553,3.00214 -2.391693,4.258841s-2.012676,2.350496 -3.136646,3.281401c-1.123966,0.930893 -2.156445,1.76869 -3.097439,2.513403c-0.522776,0.418907 -1.019409,0.802891 -1.49016,1.151981c-0.470499,0.349308 -0.836184,0.686768 -1.097574,1.012348c-0.94099,1.024212 -1.738224,2.2225 -2.391693,3.595802c-0.653721,1.373066 -1.058617,2.804314 -1.215448,4.293743c-0.156834,1.442886 -0.82337,2.618134 -1.999355,3.525757c-1.1765,0.907391 -2.548782,1.361206 -4.117104,1.361206z" id="svg_1" fill="#18bc9c"/>
 </g>
</svg>