<?xml version="1.0"?>
<svg width="64" height="64" xmlns="http://www.w3.org/2000/svg" xmlns:svg="http://www.w3.org/2000/svg">
 <g>
  <title>Layer 1</title>
  <path d="m56.000004,64l-4,0l0,-8l-8,0l0,-8l-8,0l0,-4l-8.000002,0l0,-4l0,-1.688c-2.452002,1.076 -5.152002,1.688 -8,1.688c-11.044001,0 -20.000002,-8.952 -20.000002,-20s8.956001,-20 20.000002,-20s20.000002,8.952 20.000002,20c0,2.848 -0.616005,5.548 -1.688,8l5.688,0l0,8l19.999996,16l0,12l-7.999996,0zm-40.000004,-56c-4.415999,0 -8,3.584 -8,8s3.584001,8 8,8s8.000002,-3.584 8.000002,-8s-3.584002,-8 -8.000002,-8z" id="svg_1" fill="#2c3e50"/>
 </g>
</svg>